<svg width="257" height="93" viewBox="0 0 257 93" fill="none" xmlns="http://www.w3.org/2000/svg">
<path d="M85.8636 39V9.90909H95.2528C97.3172 9.90909 99.0407 10.3068 100.423 11.1023C101.815 11.8883 102.862 12.9583 103.562 14.3125C104.273 15.6667 104.628 17.1913 104.628 18.8864C104.628 20.5814 104.277 22.1108 103.577 23.4744C102.876 24.8286 101.834 25.9034 100.452 26.6989C99.0691 27.4848 97.3504 27.8778 95.2955 27.8778H87.9091V25.4915H95.2244C96.7491 25.4915 98.0133 25.2074 99.017 24.6392C100.021 24.0616 100.769 23.2756 101.261 22.2812C101.763 21.2869 102.014 20.1553 102.014 18.8864C102.014 17.6174 101.763 16.4858 101.261 15.4915C100.769 14.4972 100.016 13.7159 99.0028 13.1477C97.9991 12.5795 96.7254 12.2955 95.1818 12.2955H88.5199V39H85.8636ZM110.864 39V9.90909H113.52V36.6136H127.384V39H110.864ZM135.242 39H132.458L143.04 9.90909H145.881L156.464 39H153.68L144.56 13.3608H144.362L135.242 39ZM137.245 27.8494H151.677V30.2358H137.245V27.8494ZM182.866 19H180.196C179.997 18.0057 179.637 17.0871 179.116 16.2443C178.605 15.392 177.961 14.6487 177.185 14.0142C176.408 13.3797 175.527 12.8873 174.543 12.5369C173.558 12.1866 172.492 12.0114 171.347 12.0114C169.509 12.0114 167.833 12.4896 166.318 13.446C164.813 14.4025 163.605 15.8087 162.696 17.6648C161.796 19.5114 161.347 21.7746 161.347 24.4545C161.347 27.1534 161.796 29.4261 162.696 31.2727C163.605 33.1193 164.813 34.5208 166.318 35.4773C167.833 36.4242 169.509 36.8977 171.347 36.8977C172.492 36.8977 173.558 36.7225 174.543 36.3722C175.527 36.0218 176.408 35.5341 177.185 34.9091C177.961 34.2746 178.605 33.5312 179.116 32.679C179.637 31.8267 179.997 30.9034 180.196 29.9091H182.866C182.63 31.2443 182.185 32.4896 181.531 33.6449C180.887 34.7907 180.063 35.7945 179.06 36.6562C178.065 37.518 176.92 38.1903 175.622 38.6733C174.325 39.1562 172.9 39.3977 171.347 39.3977C168.903 39.3977 166.735 38.7869 164.841 37.5653C162.947 36.3343 161.46 34.6013 160.381 32.3665C159.311 30.1316 158.776 27.4943 158.776 24.4545C158.776 21.4148 159.311 18.7775 160.381 16.5426C161.46 14.3078 162.947 12.5795 164.841 11.358C166.735 10.1269 168.903 9.51136 171.347 9.51136C172.9 9.51136 174.325 9.75284 175.622 10.2358C176.92 10.7093 178.065 11.3816 179.06 12.2528C180.063 13.1146 180.887 14.1184 181.531 15.2642C182.185 16.41 182.63 17.6553 182.866 19ZM189.106 39V9.90909H205.981V12.2955H191.762V23.2472H205.086V25.6335H191.762V36.6136H206.265V39H189.106Z" fill="white"/>
<path d="M103.972 56.1307C103.835 54.7557 103.25 53.6875 102.216 52.9261C101.182 52.1648 99.7784 51.7841 98.0057 51.7841C96.8011 51.7841 95.7841 51.9545 94.9545 52.2955C94.125 52.625 93.4886 53.0852 93.0455 53.6761C92.6136 54.267 92.3977 54.9375 92.3977 55.6875C92.375 56.3125 92.5057 56.858 92.7898 57.3239C93.0852 57.7898 93.4886 58.1932 94 58.5341C94.5114 58.8636 95.1023 59.1534 95.7727 59.4034C96.4432 59.642 97.1591 59.8466 97.9205 60.017L101.057 60.767C102.58 61.108 103.977 61.5625 105.25 62.1307C106.523 62.6989 107.625 63.3977 108.557 64.2273C109.489 65.0568 110.21 66.0341 110.722 67.1591C111.244 68.2841 111.511 69.5739 111.523 71.0284C111.511 73.1648 110.966 75.017 109.886 76.5852C108.818 78.142 107.273 79.3523 105.25 80.2159C103.239 81.0682 100.813 81.4943 97.9716 81.4943C95.1534 81.4943 92.6989 81.0625 90.608 80.1989C88.5284 79.3352 86.9034 78.0568 85.733 76.3636C84.5739 74.6591 83.9659 72.5511 83.9091 70.0398H91.0511C91.1307 71.2102 91.4659 72.1875 92.0568 72.9716C92.6591 73.7443 93.4602 74.3295 94.4602 74.7273C95.4716 75.1136 96.6136 75.3068 97.8864 75.3068C99.1364 75.3068 100.222 75.125 101.142 74.7614C102.074 74.3977 102.795 73.892 103.307 73.2443C103.818 72.5966 104.074 71.8523 104.074 71.0114C104.074 70.2273 103.841 69.5682 103.375 69.0341C102.92 68.5 102.25 68.0455 101.364 67.6705C100.489 67.2955 99.4148 66.9545 98.142 66.6477L94.3409 65.6932C91.3977 64.9773 89.0739 63.858 87.3693 62.3352C85.6648 60.8125 84.8182 58.7614 84.8295 56.1818C84.8182 54.0682 85.3807 52.2216 86.517 50.642C87.6648 49.0625 89.2386 47.8295 91.2386 46.9432C93.2386 46.0568 95.5114 45.6136 98.0568 45.6136C100.648 45.6136 102.909 46.0568 104.841 46.9432C106.784 47.8295 108.295 49.0625 109.375 50.642C110.455 52.2216 111.011 54.0511 111.045 56.1307H103.972ZM148.567 63.5455C148.567 67.3523 147.845 70.5909 146.402 73.2614C144.97 75.9318 143.016 77.9716 140.538 79.3807C138.072 80.7784 135.3 81.4773 132.22 81.4773C129.118 81.4773 126.334 80.7727 123.868 79.3636C121.402 77.9545 119.453 75.9148 118.021 73.2443C116.589 70.5739 115.874 67.3409 115.874 63.5455C115.874 59.7386 116.589 56.5 118.021 53.8295C119.453 51.1591 121.402 49.125 123.868 47.7273C126.334 46.3182 129.118 45.6136 132.22 45.6136C135.3 45.6136 138.072 46.3182 140.538 47.7273C143.016 49.125 144.97 51.1591 146.402 53.8295C147.845 56.5 148.567 59.7386 148.567 63.5455ZM141.084 63.5455C141.084 61.0795 140.714 59 139.976 57.3068C139.249 55.6136 138.22 54.3295 136.891 53.4545C135.561 52.5795 134.004 52.142 132.22 52.142C130.436 52.142 128.879 52.5795 127.55 53.4545C126.22 54.3295 125.186 55.6136 124.447 57.3068C123.72 59 123.357 61.0795 123.357 63.5455C123.357 66.0114 123.72 68.0909 124.447 69.7841C125.186 71.4773 126.22 72.7614 127.55 73.6364C128.879 74.5114 130.436 74.9489 132.22 74.9489C134.004 74.9489 135.561 74.5114 136.891 73.6364C138.22 72.7614 139.249 71.4773 139.976 69.7841C140.714 68.0909 141.084 66.0114 141.084 63.5455ZM175.597 46.0909H182.977V68.7614C182.977 71.3068 182.369 73.5341 181.153 75.4432C179.949 77.3523 178.261 78.8409 176.091 79.9091C173.92 80.9659 171.392 81.4943 168.506 81.4943C165.608 81.4943 163.074 80.9659 160.903 79.9091C158.733 78.8409 157.045 77.3523 155.841 75.4432C154.636 73.5341 154.034 71.3068 154.034 68.7614V46.0909H161.415V68.1307C161.415 69.4602 161.705 70.642 162.284 71.6761C162.875 72.7102 163.705 73.5227 164.773 74.1136C165.841 74.7045 167.085 75 168.506 75C169.938 75 171.182 74.7045 172.239 74.1136C173.307 73.5227 174.131 72.7102 174.71 71.6761C175.301 70.642 175.597 69.4602 175.597 68.1307V46.0909ZM218.249 46.0909V81H211.874L196.686 59.0284H196.43V81H189.05V46.0909H195.527L210.595 68.0455H210.902V46.0909H218.249ZM236.722 81H224.347V46.0909H236.824C240.335 46.0909 243.358 46.7898 245.892 48.1875C248.426 49.5739 250.375 51.5682 251.739 54.1705C253.114 56.7727 253.801 59.8864 253.801 63.5114C253.801 67.1477 253.114 70.2727 251.739 72.8864C250.375 75.5 248.415 77.5057 245.858 78.9034C243.312 80.3011 240.267 81 236.722 81ZM231.727 74.6761H236.415C238.597 74.6761 240.432 74.2898 241.92 73.517C243.42 72.733 244.545 71.5227 245.295 69.8864C246.057 68.2386 246.438 66.1136 246.438 63.5114C246.438 60.9318 246.057 58.8239 245.295 57.1875C244.545 55.5511 243.426 54.3466 241.938 53.5739C240.449 52.8011 238.614 52.4148 236.432 52.4148H231.727V74.6761Z" fill="white"/>
<path d="M0 10H48C60.7025 10 71 20.2975 71 33V82H23C10.2975 82 0 71.7025 0 59V10Z" fill="white"/>
<path d="M22.545 66.09C21.005 66.09 19.8317 65.705 19.025 64.935C18.255 64.165 17.87 63.175 17.87 61.965C17.87 60.8283 18.1817 59.8017 18.805 58.885C19.4283 57.9317 20.235 57.18 21.225 56.63C22.2517 56.0433 23.2967 55.75 24.36 55.75C24.8 55.75 25.24 55.805 25.68 55.915C26.12 55.9883 26.5417 56.135 26.945 56.355V32.925L48.615 27.425V54.43C48.615 56.41 48.1933 58.115 47.35 59.545C46.5433 60.9383 45.48 62.02 44.16 62.79C42.84 63.5233 41.4467 63.89 39.98 63.89C38.44 63.89 37.2667 63.505 36.46 62.735C35.6533 61.965 35.25 60.975 35.25 59.765C35.25 58.6283 35.5617 57.6017 36.185 56.685C36.845 55.7317 37.67 54.98 38.66 54.43C39.65 53.8433 40.695 53.55 41.795 53.55C42.235 53.55 42.675 53.605 43.115 53.715C43.555 53.7883 43.9583 53.935 44.325 54.155V31.825L45.975 33.31L29.31 37.93L31.18 35.345V56.63C31.18 58.61 30.7583 60.315 29.915 61.745C29.1083 63.1383 28.045 64.2017 26.725 64.935C25.405 65.705 24.0117 66.09 22.545 66.09Z" fill="#422A75"/>
</svg>
