<svg width="69" height="92" viewBox="0 0 69 92" fill="none" xmlns="http://www.w3.org/2000/svg">
<circle cx="34.5" cy="30.5" r="30.5" fill="white"/>
<path d="M38.8301 84.5C36.9056 87.8333 32.0944 87.8333 30.1699 84.5L8.95225 47.75C7.02775 44.4167 9.43337 40.25 13.2824 40.25L55.7176 40.25C59.5666 40.25 61.9723 44.4167 60.0478 47.75L38.8301 84.5Z" fill="white"/>
<path d="M23.712 49.824C22.368 49.824 21.344 49.488 20.64 48.816C19.968 48.144 19.632 47.28 19.632 46.224C19.632 45.232 19.904 44.336 20.448 43.536C20.992 42.704 21.696 42.048 22.56 41.568C23.456 41.056 24.368 40.8 25.296 40.8C25.68 40.8 26.064 40.848 26.448 40.944C26.832 41.008 27.2 41.136 27.552 41.328V20.88L46.464 16.08V39.648C46.464 41.376 46.096 42.864 45.36 44.112C44.656 45.328 43.728 46.272 42.576 46.944C41.424 47.584 40.208 47.904 38.928 47.904C37.584 47.904 36.56 47.568 35.856 46.896C35.152 46.224 34.8 45.36 34.8 44.304C34.8 43.312 35.072 42.416 35.616 41.616C36.192 40.784 36.912 40.128 37.776 39.648C38.64 39.136 39.552 38.88 40.512 38.88C40.896 38.88 41.28 38.928 41.664 39.024C42.048 39.088 42.4 39.216 42.72 39.408V19.92L44.16 21.216L29.616 25.248L31.248 22.992V41.568C31.248 43.296 30.88 44.784 30.144 46.032C29.44 47.248 28.512 48.176 27.36 48.816C26.208 49.488 24.992 49.824 23.712 49.824Z" fill="#422A75"/>
</svg>
